<svg id="Layer_1" data-name="Layer 1" xmlns="http://www.w3.org/2000/svg" viewBox="0 0 50 37.11"><defs><style>.cls-1,.cls-2{fill:#285a5e;}.cls-1{fill-opacity:0;}</style></defs><g id="Group_36" data-name="Group 36"><path id="Rectangle_10" data-name="Rectangle 10" class="cls-1" d="M285.17,417.67h44a3,3,0,0,1,3,3h0a3,3,0,0,1-3,3h-44a3,3,0,0,1-3-3h0A3,3,0,0,1,285.17,417.67Z" transform="translate(-282.17 -401.91)"/><path id="Rectangle_11" data-name="Rectangle 11" class="cls-2" d="M289.29,433.9l31.11-31.11a3,3,0,0,1,4.25,0h0a3,3,0,0,1,0,4.24l-31.12,31.12a3,3,0,0,1-4.24,0h0A3,3,0,0,1,289.29,433.9Z" transform="translate(-282.17 -401.91)"/><path id="Rectangle_12" data-name="Rectangle 12" class="cls-2" d="M293.53,402.79l31.12,31.11a3,3,0,0,1,0,4.25h0a3,3,0,0,1-4.25,0L289.29,407a3,3,0,0,1,0-4.24h0A3,3,0,0,1,293.53,402.79Z" transform="translate(-282.17 -401.91)"/></g></svg>